<svg width="23" height="20" viewBox="0 0 23 20" fill="none" xmlns="http://www.w3.org/2000/svg">
<path d="M5.07396 1.63409C7.5587 3.49947 10.2313 7.28169 11.2126 9.31145C12.1939 7.28184 14.8663 3.49944 17.3512 1.63409C19.144 0.288107 22.0489 -0.753339 22.0489 2.5606C22.0489 3.22244 21.6694 8.12038 21.4469 8.91555C20.6733 11.6801 17.8543 12.3852 15.3468 11.9584C19.7299 12.7044 20.8449 15.1754 18.4369 17.6464C13.8636 22.3393 11.8637 16.4689 11.351 14.9647C11.2571 14.689 11.2131 14.56 11.2125 14.6697C11.2118 14.56 11.1679 14.689 11.0739 14.9647C10.5615 16.4689 8.56168 22.3394 3.98811 17.6464C1.58005 15.1754 2.69504 12.7043 7.07822 11.9584C4.57062 12.3852 1.7516 11.6801 0.978113 8.91555C0.75555 8.12031 0.376099 3.22236 0.376099 2.5606C0.376099 -0.753339 3.28106 0.288107 5.07384 1.63409H5.07396Z" fill="#001931"/>
</svg>
