<svg width="24" height="25" viewBox="0 0 24 25" fill="none" xmlns="http://www.w3.org/2000/svg">
<path d="M12.2125 0.646484C5.74389 0.646484 0.481323 5.90905 0.481323 12.3777C0.481323 18.8463 5.74389 24.1088 12.2125 24.1088C18.6811 24.1088 23.9437 18.8463 23.9437 12.3777C23.9437 5.90905 18.6811 0.646484 12.2125 0.646484ZM19.9688 6.05635C21.3644 7.76144 22.2095 9.93317 22.2315 12.2982C21.9012 12.2284 18.5883 11.5564 15.2542 11.9757C14.9821 11.3115 14.7253 10.7273 14.3736 10.0073C18.0784 8.49464 19.7575 6.34211 19.9688 6.05635ZM18.8548 4.89762C18.6746 5.15433 17.1663 7.18169 13.6032 8.5172C11.9612 5.5004 10.1413 3.02209 9.86437 2.65124C13.042 1.88526 16.3906 2.71131 18.8548 4.89762ZM7.95243 3.32479C8.21661 3.68708 10.0072 6.16846 11.6675 9.11984C6.98035 10.3645 2.85206 10.3466 2.40391 10.3407C3.05367 7.23132 5.1491 4.64705 7.95243 3.32479ZM2.19228 12.3929C2.19228 12.2905 2.19431 12.1885 2.19739 12.0867C2.63579 12.0957 7.49155 12.1583 12.4956 10.6607C12.7824 11.2221 13.0564 11.792 13.3079 12.3612C9.68457 13.3818 6.39251 16.3123 4.76826 19.0928C3.16786 17.3163 2.19228 14.9666 2.19228 12.3929ZM6.062 20.2979C7.10868 18.1582 9.94928 15.3963 13.989 14.0181C15.3958 17.6739 15.9776 20.7377 16.1266 21.6168C12.9047 22.9892 9.03042 22.6127 6.062 20.2979ZM17.8112 20.6995C17.7085 20.0899 17.1751 17.1566 15.8645 13.5551C19.0045 13.0525 21.7632 13.8753 22.106 13.9835C21.6594 16.7715 20.0591 19.1794 17.8112 20.6995Z" fill="#001931"/>
</svg>
