<svg width="22" height="20" viewBox="0 0 22 20" fill="none" xmlns="http://www.w3.org/2000/svg">
<path d="M7.66443 15.2197V19.1243C7.66443 19.3971 7.84232 19.6387 8.10573 19.7246C8.17158 19.7456 8.23914 19.7557 8.30585 19.7557C8.50598 19.7557 8.69926 19.6631 8.82241 19.4981L11.1427 16.3899L7.66443 15.2197Z" fill="#001931"/>
<path d="M21.2059 0.509673C21.0092 0.372448 20.7509 0.353927 20.5371 0.464212L1.2944 10.3562C1.06691 10.4732 0.93264 10.7123 0.951456 10.964C0.971126 11.2166 1.14132 11.4321 1.38335 11.5138L6.73282 13.3137L18.1253 3.72478L9.30963 14.18L18.275 17.1964C18.3417 17.2183 18.4119 17.2301 18.482 17.2301C18.5983 17.2301 18.7137 17.1989 18.8155 17.1383C18.978 17.0406 19.0883 16.8765 19.1166 16.6921L21.4684 1.1175C21.5035 0.881779 21.4026 0.647739 21.2059 0.509673Z" fill="#001931"/>
</svg>
