<svg width="36" height="36" viewBox="0 0 36 36" fill="none" xmlns="http://www.w3.org/2000/svg">
<path d="M7.14178 7.64588C7.14178 4.92263 9.34737 2.71704 12.0682 2.71704H18.0937V12.5747H12.0682C9.34492 12.5747 7.14178 10.3667 7.14178 7.64342V7.64588Z" fill="#FFFCF4"/>
<path d="M29.0456 18.0507C29.0456 16.5984 28.4687 15.2056 27.4418 14.1787C26.4148 13.1517 25.022 12.5748 23.5697 12.5748C22.1174 12.5748 20.7246 13.1517 19.6976 14.1787C18.6707 15.2056 18.0938 16.5984 18.0938 18.0507C18.0938 19.503 18.6707 20.8959 19.6976 21.9228C20.7246 22.9497 22.1174 23.5267 23.5697 23.5267C25.022 23.5267 26.4148 22.9497 27.4418 21.9228C28.4687 20.8959 29.0456 19.503 29.0456 18.0507Z" fill="#FFFCF4"/>
<path d="M7.14185 28.4554C7.14185 25.7321 9.34743 23.5265 12.0682 23.5265H18.0937V27.9083C18.0937 30.9333 15.6403 33.3842 12.6178 33.3842H12.0682C9.34498 33.3842 7.14185 31.1762 7.14185 28.4554Z" fill="#FFFCF4"/>
<path d="M7.14178 7.64588C7.14178 4.92263 9.34737 2.71704 12.0682 2.71704H18.0937V12.5747H12.0682C9.34492 12.5747 7.14178 10.3667 7.14178 7.64342V7.64588Z" stroke="#001931" stroke-width="2.45338" stroke-linecap="round" stroke-linejoin="round"/>
<path d="M29.0456 18.0507C29.0456 16.5984 28.4687 15.2056 27.4418 14.1787C26.4148 13.1517 25.022 12.5748 23.5697 12.5748C22.1174 12.5748 20.7246 13.1517 19.6976 14.1787C18.6707 15.2056 18.0938 16.5984 18.0938 18.0507C18.0938 19.503 18.6707 20.8959 19.6976 21.9228C20.7246 22.9497 22.1174 23.5267 23.5697 23.5267C25.022 23.5267 26.4148 22.9497 27.4418 21.9228C28.4687 20.8959 29.0456 19.503 29.0456 18.0507Z" stroke="#001931" stroke-width="2.45338" stroke-linecap="round" stroke-linejoin="round"/>
<path d="M7.14185 28.4554C7.14185 25.7321 9.34743 23.5265 12.0682 23.5265H18.0937V27.9083C18.0937 30.9333 15.6403 33.3842 12.6178 33.3842H12.0682C9.34498 33.3842 7.14185 31.1762 7.14185 28.4554Z" stroke="#001931" stroke-width="2.45338" stroke-linecap="round" stroke-linejoin="round"/>
<path d="M29.0456 7.64588C29.0456 4.92263 26.84 2.71704 24.1192 2.71704H18.0938V12.5747H24.1192C26.8425 12.5747 29.0456 10.3667 29.0456 7.64342V7.64588Z" stroke="#001931" stroke-width="2.45338" stroke-linecap="round" stroke-linejoin="round"/>
<path d="M7.14185 18.0507C7.14185 15.0257 9.59277 12.5748 12.6178 12.5748H18.0937V23.5267H12.6178C9.59277 23.5267 7.14185 21.0733 7.14185 18.0507Z" stroke="#001931" stroke-width="2.45338" stroke-linecap="round" stroke-linejoin="round"/>
</svg>
