<svg width="21" height="21" viewBox="0 0 21 21" fill="none" xmlns="http://www.w3.org/2000/svg">
<path d="M8.25 13.8965C7.92917 13.8965 7.65799 13.7857 7.43646 13.5642C7.21493 13.3427 7.10417 13.0715 7.10417 12.7507C7.10417 12.4298 7.21493 12.1586 7.43646 11.9371C7.65799 11.7156 7.92917 11.6048 8.25 11.6048C8.57083 11.6048 8.84201 11.7156 9.06354 11.9371C9.28507 12.1586 9.39583 12.4298 9.39583 12.7507C9.39583 13.0715 9.28507 13.3427 9.06354 13.5642C8.84201 13.7857 8.57083 13.8965 8.25 13.8965ZM13.75 13.8965C13.4292 13.8965 13.158 13.7857 12.9365 13.5642C12.7149 13.3427 12.6042 13.0715 12.6042 12.7507C12.6042 12.4298 12.7149 12.1586 12.9365 11.9371C13.158 11.7156 13.4292 11.6048 13.75 11.6048C14.0708 11.6048 14.342 11.7156 14.5635 11.9371C14.7851 12.1586 14.8958 12.4298 14.8958 12.7507C14.8958 13.0715 14.7851 13.3427 14.5635 13.5642C14.342 13.7857 14.0708 13.8965 13.75 13.8965ZM11 19.1673C13.0472 19.1673 14.7813 18.4569 16.2021 17.0361C17.6229 15.6152 18.3333 13.8812 18.3333 11.834C18.3333 11.4673 18.3104 11.1121 18.2646 10.7684C18.2188 10.4246 18.1347 10.0923 18.0125 9.77149C17.6917 9.84787 17.3708 9.90517 17.05 9.94336C16.7292 9.98155 16.3931 10.0007 16.0417 10.0007C14.6514 10.0007 13.3375 9.70274 12.1 9.1069C10.8625 8.51107 9.80833 7.67843 8.9375 6.60899C8.44861 7.80065 7.74965 8.83572 6.84063 9.71419C5.9316 10.5927 4.87361 11.2534 3.66667 11.6965V11.834C3.66667 13.8812 4.37708 15.6152 5.79792 17.0361C7.21875 18.4569 8.95278 19.1673 11 19.1673ZM9.7625 4.61523C10.4042 5.68468 11.275 6.54405 12.375 7.19336C13.475 7.84267 14.6972 8.16732 16.0417 8.16732C16.2556 8.16732 16.4618 8.15586 16.6604 8.13294C16.859 8.11003 17.0653 8.08329 17.2792 8.05274C16.6375 6.98329 15.7667 6.12392 14.6667 5.47461C13.5667 4.8253 12.3444 4.50065 11 4.50065C10.7861 4.50065 10.5799 4.51211 10.3813 4.53503C10.1826 4.55794 9.97639 4.58468 9.7625 4.61523ZM4.05625 9.5194C4.83542 9.07635 5.51528 8.50343 6.09583 7.80065C6.67639 7.09787 7.11181 6.31107 7.40208 5.44023C6.62292 5.88329 5.94306 6.45621 5.3625 7.15899C4.78194 7.86176 4.34653 8.64857 4.05625 9.5194ZM2.91042 7.54857C3.33819 6.73885 3.87674 6.00933 4.52604 5.36003C5.17535 4.71072 5.90486 4.17218 6.71458 3.7444C6.45486 3.42357 6.14167 3.16385 5.775 2.96523C5.40833 2.76662 5.00347 2.66732 4.56042 2.66732C3.79653 2.66732 3.15104 2.93086 2.62396 3.45794C2.09688 3.98503 1.83333 4.63051 1.83333 5.3944C1.83333 5.83746 1.93264 6.24232 2.13125 6.60899C2.32986 6.97565 2.58958 7.28885 2.91042 7.54857ZM11 21.0007C9.73195 21.0007 8.54028 20.76 7.425 20.2788C6.30972 19.7975 5.33958 19.1444 4.51458 18.3194C3.68958 17.4944 3.03646 16.5243 2.55521 15.409C2.07396 14.2937 1.83333 13.102 1.83333 11.834C1.83333 11.3909 1.86389 10.9517 1.925 10.5163C1.98611 10.0809 2.07778 9.66454 2.2 9.26732C1.54306 8.8701 1.01215 8.33155 0.607292 7.65169C0.202431 6.97183 0 6.2194 0 5.3944C0 4.12635 0.443056 3.04926 1.32917 2.16315C2.21528 1.27704 3.29236 0.833984 4.56042 0.833984C5.37014 0.833984 6.11493 1.02878 6.79479 1.41836C7.47465 1.80794 8.02083 2.34648 8.43333 3.03398C8.83056 2.91176 9.24688 2.8201 9.68229 2.75898C10.1177 2.69787 10.5569 2.66732 11 2.66732C12.2681 2.66732 13.4597 2.90794 14.575 3.38919C15.6903 3.87044 16.6604 4.52357 17.4854 5.34857C18.3104 6.17357 18.9635 7.14371 19.4448 8.25899C19.926 9.37426 20.1667 10.5659 20.1667 11.834C20.1667 13.102 19.926 14.2937 19.4448 15.409C18.9635 16.5243 18.3104 17.4944 17.4854 18.3194C16.6604 19.1444 15.6903 19.7975 14.575 20.2788C13.4597 20.76 12.2681 21.0007 11 21.0007Z" fill="#1C1B1F"/>
</svg>
