<svg width="24" height="24" viewBox="0 0 24 24" fill="none" xmlns="http://www.w3.org/2000/svg">
<path fill-rule="evenodd" clip-rule="evenodd" d="M12.2007 0.949245C9.4177 0.948904 6.72538 1.93907 4.60571 3.74249C2.48604 5.54592 1.0774 8.04487 0.631944 10.792C0.186489 13.5392 0.733295 16.3552 2.17449 18.7361C3.61568 21.1169 5.85716 22.9071 8.49772 23.7862C9.08364 23.894 9.29457 23.533 9.29457 23.219C9.29457 22.9049 9.29457 22.2065 9.29457 21.2269C6.03684 21.9346 5.3478 19.6566 5.3478 19.6566C4.81344 18.3019 4.04471 17.941 4.04471 17.941C2.98067 17.2145 4.12439 17.2285 4.12439 17.2285C4.49591 17.2802 4.85073 17.4161 5.16184 17.6256C5.47294 17.8352 5.73212 18.113 5.91966 18.4379C6.96494 20.2284 8.66646 19.7128 9.33207 19.4128C9.38441 18.8184 9.64897 18.2627 10.0774 17.8472C7.46181 17.5332 4.72438 16.5442 4.72438 12.0536C4.70657 10.8893 5.138 9.76293 5.92903 8.90842C5.57462 7.89961 5.61651 6.79385 6.04622 5.81475C6.04622 5.81475 7.03057 5.496 9.26645 7.01472C11.1874 6.48982 13.2141 6.48982 15.135 7.01472C17.3569 5.49132 18.3553 5.81475 18.3553 5.81475C18.7862 6.79521 18.8281 7.90288 18.4725 8.9131C19.2709 9.76279 19.7108 10.8877 19.7006 12.0536C19.7006 16.5535 16.935 17.5332 14.3241 17.8379C14.6047 18.1214 14.821 18.462 14.9585 18.8364C15.0959 19.2108 15.1514 19.6104 15.121 20.0081C15.121 21.5737 15.121 22.8206 15.121 23.219C15.121 23.533 15.3319 23.8987 15.9272 23.7862C18.5697 22.9064 20.8125 21.1143 22.2535 18.731C23.6946 16.3478 24.2397 13.5292 23.7912 10.7804C23.3427 8.03172 21.9298 5.53261 19.8059 3.73106C17.682 1.92951 14.9858 0.943315 12.2007 0.949245Z" fill="#001931"/>
</svg>
