<svg width="23" height="23" viewBox="0 0 23 23" fill="none" xmlns="http://www.w3.org/2000/svg">
<path d="M19.8536 0.576172H2.5714C1.38114 0.580408 0.415369 1.54618 0.411133 2.73644V20.0186C0.415369 21.2089 1.38114 22.1746 2.5714 22.1789H19.8536C21.0438 22.1746 22.0096 21.2089 22.0138 20.0186V2.73644C22.0096 1.54618 21.0438 0.580408 19.8536 0.576172ZM6.89195 18.9385H3.65154V9.21726H6.89195V18.9385ZM5.27386 7.37891C4.2022 7.37891 3.32962 6.50633 3.32962 5.43466C3.32962 4.363 4.2022 3.49042 5.27386 3.49042C6.34552 3.49042 7.2181 4.363 7.2181 5.43466C7.22234 6.50209 6.35823 7.37467 5.2908 7.37891C5.28233 7.38314 5.2781 7.38314 5.27386 7.37891ZM18.7734 18.9385H15.533V13.2159C15.533 12.3518 14.7748 11.5978 13.9149 11.5978C13.0551 11.5978 12.2969 12.356 12.2969 13.2159V18.9385H9.05222V9.21726H12.2926V10.5134C12.8348 9.64931 14.0208 9.00123 14.9951 9.00123C17.0495 9.00123 18.7734 10.7294 18.7734 12.7838V18.9385Z" fill="#001931"/>
</svg>
