<svg width="67" height="66" viewBox="0 0 67 66" fill="none" xmlns="http://www.w3.org/2000/svg">
<g clip-path="url(#clip0_44_2508)">
<path d="M44.2762 45.5736C44.9453 45.5736 45.4877 45.0312 45.4877 44.3621C45.4877 43.693 44.9453 43.1506 44.2762 43.1506C43.6071 43.1506 43.0647 43.693 43.0647 44.3621C43.0647 45.0312 43.6071 45.5736 44.2762 45.5736Z" fill="#004789"/>
<path d="M47.0178 48.3144C47.6869 48.3144 48.2293 47.772 48.2293 47.1029C48.2293 46.4338 47.6869 45.8914 47.0178 45.8914C46.3487 45.8914 45.8063 46.4338 45.8063 47.1029C45.8063 47.772 46.3487 48.3144 47.0178 48.3144Z" fill="#004789"/>
<path d="M50.6151 48.9882L54.8554 53.2285C55.3286 53.7017 55.3286 54.4688 54.8554 54.9419C54.3822 55.4151 53.6151 55.4151 53.1419 54.9419L48.9016 50.7016C48.4285 50.2285 48.4285 49.4614 48.9016 48.9882C49.3748 48.515 50.1419 48.515 50.6151 48.9882Z" fill="#004789"/>
<path d="M56.7395 58.0363C57.4086 58.0363 57.951 57.4939 57.951 56.8248C57.951 56.1557 57.4086 55.6133 56.7395 55.6133C56.0704 55.6133 55.528 56.1557 55.528 56.8248C55.528 57.4939 56.0704 58.0363 56.7395 58.0363Z" fill="#004789"/>
<path d="M19.0339 48.0319C19.703 48.0319 20.2454 47.4895 20.2454 46.8204C20.2454 46.1513 19.703 45.6089 19.0339 45.6089C18.3648 45.6089 17.8224 46.1513 17.8224 46.8204C17.8224 47.4895 18.3648 48.0319 19.0339 48.0319Z" fill="#004789"/>
<path d="M16.2938 50.7758C16.9629 50.7758 17.5053 50.2334 17.5053 49.5643C17.5053 48.8952 16.9629 48.3528 16.2938 48.3528C15.6247 48.3528 15.0823 48.8952 15.0823 49.5643C15.0823 50.2334 15.6247 50.7758 16.2938 50.7758Z" fill="#004789"/>
<path d="M14.4093 53.1616L10.169 57.4019C9.69586 57.8751 8.92876 57.8751 8.45559 57.4019C7.98242 56.9287 7.98242 56.1616 8.45559 55.6885L12.6959 51.4481C13.1691 50.975 13.9362 50.975 14.4093 51.4481C14.8825 51.9213 14.8825 52.6884 14.4093 53.1616Z" fill="#004789"/>
<path d="M24.2014 41.1244L23.6098 40.5327L20.9188 43.2236C20.4457 43.6968 20.4457 44.4639 20.9188 44.9371C21.392 45.4103 22.1591 45.4103 22.6323 44.9371L25.3976 42.1717C24.9822 41.8535 24.5819 41.5041 24.2022 41.1244H24.2014Z" fill="#004789"/>
<path fill-rule="evenodd" clip-rule="evenodd" d="M52.123 57.9405L38.6615 44.479L37.3977 45.7428L50.8592 59.2043C51.2085 59.5529 51.7744 59.5529 52.123 59.2043C52.4716 58.8549 52.4716 58.2891 52.123 57.9405Z" fill="#00A0B0"/>
<path fill-rule="evenodd" clip-rule="evenodd" d="M28.3009 43.8081L14.1909 57.9182C13.8415 58.2676 13.8415 58.8334 14.1909 59.182C14.5402 59.5306 15.1061 59.5314 15.4547 59.182L30.2498 44.3868C29.5883 44.2501 28.9359 44.0572 28.3009 43.8081Z" fill="#00A0B0"/>
<path fill-rule="evenodd" clip-rule="evenodd" d="M20.3992 37.3196L6.99474 50.7241C6.64612 51.0727 6.64612 51.6385 6.99474 51.9879C7.34411 52.3373 7.90994 52.3373 8.25855 51.9879L21.663 38.5834L20.3992 37.3196Z" fill="#00A0B0"/>
<path fill-rule="evenodd" clip-rule="evenodd" d="M33.3899 44.6167C30.0952 44.8104 26.7253 43.6468 24.203 41.1245L3.72595 20.6475C-0.957153 15.9644 -0.957153 8.37088 3.72595 3.68701C8.40982 -0.99609 16.0026 -0.99609 20.6864 3.68701L33.0694 16.07L45.6271 3.51233C50.3102 -1.17078 57.9037 -1.17078 62.5876 3.51233C67.2714 8.19543 67.2707 15.789 62.5876 20.4728L41.9564 41.104C39.5928 43.4668 36.4834 44.638 33.3907 44.616L33.3899 44.6167ZM33.0686 20.1819L18.6305 5.74299C15.0821 2.19459 9.32958 2.19459 5.78193 5.74299C2.23353 9.29064 2.23353 15.0439 5.78193 18.5915L26.2589 39.0685C28.1934 41.0037 30.7841 41.8833 33.3155 41.7078C35.6943 41.7496 38.0859 40.8632 39.9004 39.048L60.5316 18.4168C64.0792 14.8684 64.0792 9.11595 60.5316 5.56831C56.9832 2.0199 51.2307 2.0199 47.683 5.56831L33.0702 20.1812L33.0686 20.1819Z" fill="#004789"/>
<path fill-rule="evenodd" clip-rule="evenodd" d="M58.4504 8.08768C56.1005 5.73777 52.2901 5.73777 49.9394 8.08768L33.5364 24.4907L17.0627 8.0178C14.7128 5.66789 10.9024 5.66789 8.55174 8.0178C6.20183 10.3677 6.20183 14.1781 8.55174 16.5288L29.1928 37.1691C29.5012 37.4775 29.8346 37.7441 30.1862 37.9711C32.527 39.5562 35.7367 39.3132 37.8101 37.2397L58.4512 16.5987C60.8019 14.2488 60.8019 10.4383 58.4512 8.08768H58.4504ZM10.2652 9.73049C11.6695 8.32616 13.9457 8.32616 15.3501 9.73049L31.8237 26.2041L29.2991 28.7287C28.3376 29.6903 27.7702 30.8956 27.5956 32.145L10.2652 14.8154C8.86086 13.411 8.86086 11.1348 10.2652 9.73049ZM35.9904 35.4557C34.7759 36.6701 32.9098 36.8334 31.5192 35.9471C31.3407 35.824 31.1705 35.6843 31.0118 35.5263C29.6075 34.122 29.6075 31.8457 31.0118 30.4414L33.5364 27.9168L35.9904 30.3708C37.3947 31.7751 37.3947 34.0513 35.9904 35.4557ZM56.737 14.8852L39.4218 32.2004C39.2684 30.9055 38.6965 29.6515 37.703 28.6581L35.2491 26.2041L51.6521 9.80112C53.0564 8.39679 55.3327 8.39679 56.737 9.80112C58.1413 11.2054 58.1413 13.4817 56.737 14.886V14.8852Z" fill="#00A0B0"/>
<path d="M41.154 26.6803C41.8231 26.6803 42.3655 26.1379 42.3655 25.4688C42.3655 24.7997 41.8231 24.2573 41.154 24.2573C40.4849 24.2573 39.9425 24.7997 39.9425 25.4688C39.9425 26.1379 40.4849 26.6803 41.154 26.6803Z" fill="#004789"/>
<path d="M43.8952 23.9398C44.5643 23.9398 45.1067 23.3974 45.1067 22.7283C45.1067 22.0593 44.5643 21.5168 43.8952 21.5168C43.2261 21.5168 42.6837 22.0593 42.6837 22.7283C42.6837 23.3974 43.2261 23.9398 43.8952 23.9398Z" fill="#004789"/>
<path d="M46.6359 21.1972C47.305 21.1972 47.8474 20.6548 47.8474 19.9857C47.8474 19.3166 47.305 18.7742 46.6359 18.7742C45.9668 18.7742 45.4244 19.3166 45.4244 19.9857C45.4244 20.6548 45.9668 21.1972 46.6359 21.1972Z" fill="#004789"/>
<path d="M48.5209 16.3899L52.7612 12.1496C53.2344 11.6764 54.0015 11.6764 54.4746 12.1496C54.9478 12.6227 54.9478 13.3898 54.4746 13.863L50.2343 18.1033C49.7612 18.5765 48.9941 18.5765 48.5209 18.1033C48.0477 17.6301 48.0477 16.863 48.5209 16.3899Z" fill="#004789"/>
<path fill-rule="evenodd" clip-rule="evenodd" d="M12.5856 12.0117C12.9638 11.6335 13.5775 11.6335 13.9557 12.0117L27.8744 25.9304C28.2526 26.3086 28.2526 26.9223 27.8744 27.3013C27.4962 27.6803 26.8825 27.6795 26.5042 27.3013L12.5856 13.3826C12.2073 13.0044 12.2073 12.3907 12.5856 12.0125V12.0117Z" fill="#004789"/>
<path fill-rule="evenodd" clip-rule="evenodd" d="M45.8162 37.2424L44.5524 38.5062L58.0541 52.008C58.4035 52.3573 58.9693 52.3573 59.3179 52.008C59.6673 51.6586 59.6673 51.0935 59.3179 50.7441L45.8162 37.2424Z" fill="#00A0B0"/>
<path fill-rule="evenodd" clip-rule="evenodd" d="M50.0659 32.9919L48.0099 35.0479L60.1673 47.2053C63.7157 50.7537 63.7157 56.5062 60.1673 60.0539C56.6197 63.6023 50.8664 63.6023 47.3188 60.0539L35.2016 47.9367L41.5215 41.6169C41.8002 41.3381 42.063 41.048 42.3083 40.7495L41.9559 41.1019C41.886 41.1718 41.8154 41.2402 41.744 41.3085C41.7205 41.3313 41.6962 41.3533 41.6726 41.3754C41.6248 41.4202 41.5769 41.465 41.5283 41.509C41.4994 41.5349 41.4706 41.5607 41.4417 41.5865C41.3977 41.626 41.3536 41.6647 41.3088 41.7035C41.2777 41.73 41.2465 41.7566 41.2154 41.7832C41.1721 41.8197 41.1288 41.8561 41.0855 41.8918C41.0529 41.9184 41.021 41.945 40.9883 41.9708C40.945 42.0057 40.9017 42.0399 40.8584 42.0741C40.8258 42.0999 40.7923 42.1257 40.7589 42.1516C40.7149 42.185 40.6701 42.2184 40.626 42.2518C40.5934 42.2761 40.5599 42.3012 40.5273 42.3255C40.4802 42.3597 40.4331 42.3931 40.386 42.4265C40.3549 42.4485 40.3237 42.4713 40.2926 42.4926C40.2227 42.5412 40.1528 42.5883 40.0822 42.6346C40.0427 42.6604 40.0025 42.6863 39.963 42.7121C39.9174 42.7417 39.8718 42.7706 39.8263 42.7994C39.786 42.8245 39.745 42.8488 39.7047 42.8739C39.6652 42.8982 39.6257 42.9225 39.5855 42.946C39.5422 42.9718 39.4997 42.9961 39.4564 43.0212C39.4184 43.0432 39.3812 43.0645 39.3432 43.0858C39.2984 43.1108 39.2528 43.1359 39.2073 43.1609C39.1716 43.1807 39.1351 43.1997 39.0994 43.2187C39.0523 43.2437 39.0045 43.2688 38.9574 43.2931C38.924 43.3106 38.8898 43.3273 38.8564 43.3447C38.8062 43.3698 38.7561 43.3949 38.706 43.4192C38.6764 43.4336 38.646 43.4473 38.6164 43.4617C38.5617 43.4875 38.507 43.5134 38.4523 43.5384C38.4341 43.5468 38.4159 43.5544 38.3984 43.5627C38.1812 43.6607 37.9609 43.7518 37.7391 43.8362C37.7323 43.8384 37.7255 43.8415 37.7186 43.8437C37.651 43.8696 37.5834 43.8939 37.5158 43.9182C37.4984 43.9243 37.4809 43.9311 37.4627 43.9372C37.3974 43.96 37.332 43.982 37.266 44.004C37.2462 44.0108 37.2272 44.0169 37.2075 44.0237C37.1414 44.045 37.0753 44.0663 37.0093 44.0868C36.991 44.0921 36.9728 44.0982 36.9538 44.1035C36.8855 44.124 36.8171 44.1445 36.748 44.1635C36.7343 44.1673 36.7199 44.1711 36.7062 44.1749C36.6325 44.1954 36.5589 44.2159 36.4844 44.2349C36.4829 44.2349 36.4806 44.2357 36.4791 44.2364C36.0637 44.3435 35.6429 44.4278 35.2206 44.4901C35.2206 44.4901 35.2191 44.4901 35.2183 44.4901C35.1371 44.5022 35.0558 44.5129 34.9738 44.5235C34.9677 44.5235 34.9616 44.525 34.9563 44.5258C34.8766 44.5357 34.7961 44.5448 34.7155 44.5531C34.7095 44.5531 34.7042 44.5546 34.6981 44.5546C34.6161 44.563 34.534 44.5706 34.4512 44.5774L33.1449 45.8838L31.0889 47.9398L18.9923 60.0364C15.4439 63.5848 9.69139 63.5848 6.14375 60.0364C2.59534 56.488 2.59534 50.7355 6.14375 47.1878L18.2039 35.1277L16.1479 33.0717L4.08777 45.1319C-0.595337 49.815 -0.595337 57.4085 4.08777 62.0924C8.77163 66.7755 16.3644 66.7755 21.0483 62.0924L33.1449 49.9957L45.262 62.1129C49.9459 66.796 57.5387 66.796 62.2225 62.1129C66.9056 57.429 66.9056 49.8362 62.2225 45.1524L50.0651 32.995L50.0659 32.9919Z" fill="#004789"/>
</g>
<defs>
<clipPath id="clip0_44_2508">
<rect width="65.8863" height="65.6242" fill="white" transform="translate(0.212524)"/>
</clipPath>
</defs>
</svg>
