<svg width="1233" height="14" viewBox="0 0 1233 14" fill="none" xmlns="http://www.w3.org/2000/svg">
<rect x="973.458" y="12.1475" width="42.1555" height="10.7066" rx="5.35329" transform="rotate(-180 973.458 12.1475)" fill="#004789" stroke="#001931" stroke-width="2"/>
<circle cx="916.325" cy="6.79417" r="5.35329" transform="rotate(-180 916.325 6.79417)" fill="#00A0B0" stroke="#001931" stroke-width="2"/>
<circle cx="895.995" cy="6.79417" r="5.35329" transform="rotate(-180 895.995 6.79417)" fill="#00A0B0" stroke="#001931" stroke-width="2"/>
<rect x="881.018" y="12.1475" width="42.1555" height="10.7066" rx="5.35329" transform="rotate(-180 881.018 12.1475)" fill="#004789" stroke="#001931" stroke-width="2"/>
<circle cx="1004.81" cy="6.79469" r="5.35329" fill="#00A0B0" stroke="#001931" stroke-width="2"/>
<circle cx="1025.09" cy="6.79469" r="5.35329" fill="#00A0B0" stroke="#001931" stroke-width="2"/>
<circle cx="1045.36" cy="6.79469" r="5.35329" fill="#00A0B0" stroke="#001931" stroke-width="2"/>
<rect x="1060.28" y="1.44141" width="42.1555" height="10.7066" rx="5.35329" fill="#004789" stroke="#001931" stroke-width="2"/>
<circle cx="1133.79" cy="6.79469" r="5.35329" fill="#00A0B0" stroke="#001931" stroke-width="2"/>
<circle cx="1154.12" cy="6.79469" r="5.35329" fill="#00A0B0" stroke="#001931" stroke-width="2"/>
<rect x="1169.1" y="1.44141" width="42.1555" height="10.7066" rx="5.35329" fill="#004789" stroke="#001931" stroke-width="2"/>
<circle cx="1226.23" cy="6.79469" r="5.35329" fill="#00A0B0" stroke="#001931" stroke-width="2"/>
<rect x="554.734" y="12.1475" width="42.1555" height="10.7066" rx="5.35329" transform="rotate(-180 554.734 12.1475)" fill="#004789" stroke="#001931" stroke-width="2"/>
<circle cx="497.601" cy="6.79417" r="5.35329" transform="rotate(-180 497.601 6.79417)" fill="#00A0B0" stroke="#001931" stroke-width="2"/>
<circle cx="477.271" cy="6.79417" r="5.35329" transform="rotate(-180 477.271 6.79417)" fill="#00A0B0" stroke="#001931" stroke-width="2"/>
<rect x="462.294" y="12.1475" width="42.1555" height="10.7066" rx="5.35329" transform="rotate(-180 462.294 12.1475)" fill="#004789" stroke="#001931" stroke-width="2"/>
<circle cx="586.088" cy="6.79469" r="5.35329" fill="#00A0B0" stroke="#001931" stroke-width="2"/>
<circle cx="606.363" cy="6.79469" r="5.35329" fill="#00A0B0" stroke="#001931" stroke-width="2"/>
<circle cx="626.637" cy="6.79469" r="5.35329" fill="#00A0B0" stroke="#001931" stroke-width="2"/>
<rect x="641.559" y="1.44141" width="42.1555" height="10.7066" rx="5.35329" fill="#004789" stroke="#001931" stroke-width="2"/>
<circle cx="715.068" cy="6.79469" r="5.35329" fill="#00A0B0" stroke="#001931" stroke-width="2"/>
<circle cx="735.398" cy="6.79469" r="5.35329" fill="#00A0B0" stroke="#001931" stroke-width="2"/>
<rect x="750.375" y="1.44141" width="42.1555" height="10.7066" rx="5.35329" fill="#004789" stroke="#001931" stroke-width="2"/>
<circle cx="807.508" cy="6.79469" r="5.35329" fill="#00A0B0" stroke="#001931" stroke-width="2"/>
<rect x="136.011" y="12.1475" width="42.1555" height="10.7066" rx="5.35329" transform="rotate(-180 136.011 12.1475)" fill="#004789" stroke="#001931" stroke-width="2"/>
<circle cx="78.8782" cy="6.79417" r="5.35329" transform="rotate(-180 78.8782 6.79417)" fill="#00A0B0" stroke="#001931" stroke-width="2"/>
<circle cx="58.5481" cy="6.79417" r="5.35329" transform="rotate(-180 58.5481 6.79417)" fill="#00A0B0" stroke="#001931" stroke-width="2"/>
<rect x="43.5708" y="12.1475" width="42.1555" height="10.7066" rx="5.35329" transform="rotate(-180 43.5708 12.1475)" fill="#004789" stroke="#001931" stroke-width="2"/>
<circle cx="167.365" cy="6.79469" r="5.35329" fill="#00A0B0" stroke="#001931" stroke-width="2"/>
<circle cx="187.639" cy="6.79469" r="5.35329" fill="#00A0B0" stroke="#001931" stroke-width="2"/>
<circle cx="207.914" cy="6.79469" r="5.35329" fill="#00A0B0" stroke="#001931" stroke-width="2"/>
<rect x="222.836" y="1.44141" width="42.1555" height="10.7066" rx="5.35329" fill="#004789" stroke="#001931" stroke-width="2"/>
<circle cx="296.344" cy="6.79469" r="5.35329" fill="#00A0B0" stroke="#001931" stroke-width="2"/>
<circle cx="316.675" cy="6.79469" r="5.35329" fill="#00A0B0" stroke="#001931" stroke-width="2"/>
<rect x="331.652" y="1.44141" width="42.1555" height="10.7066" rx="5.35329" fill="#004789" stroke="#001931" stroke-width="2"/>
<circle cx="388.785" cy="6.79469" r="5.35329" fill="#00A0B0" stroke="#001931" stroke-width="2"/>
</svg>
