<svg width="78" height="9" viewBox="0 0 78 9" fill="none" xmlns="http://www.w3.org/2000/svg">
<path d="M1.58154 5.46213C1.58154 9.04481 5.51579 6.95324 8.99297 5.70162C12.714 4.36222 16.9753 2.09127 21.0432 1.28814C22.1495 1.06972 20.7113 4.51888 20.5633 4.98314C19.9733 6.83401 19.7397 7.30545 22.6961 6.07796C25.764 4.8042 28.7736 3.12094 32.1337 2.17768C34.0454 1.64101 33.2534 5.20633 33.2534 5.94111C33.2534 6.75879 37.8507 5.09547 39.0652 4.81208C42.2103 4.07823 45.7022 2.24626 48.9294 1.86976C50.0849 1.73495 48.6306 2.74015 48.6094 2.99879C48.3286 6.42216 46.9897 6.09776 53.035 5.15421C56.4033 4.62847 59.9093 3.43342 63.2723 3.10143C64.8837 2.94236 62.5251 4.99131 63.219 5.32527C66.5624 6.93425 76.4423 0.772998 76.4423 5.46213" stroke="#00A0B0" stroke-width="2" stroke-linecap="round"/>
</svg>
