<svg width="110" height="110" viewBox="0 0 110 110" fill="none" xmlns="http://www.w3.org/2000/svg">
<g id="xvf-logo" clip-path="url(#clip0_2854_2833)">
<g id="Group">
<path id="Vector" d="M73.5872 76.5445C74.7003 76.5445 75.6026 75.6422 75.6026 74.5291C75.6026 73.416 74.7003 72.5137 73.5872 72.5137C72.4741 72.5137 71.5718 73.416 71.5718 74.5291C71.5718 75.6422 72.4741 76.5445 73.5872 76.5445Z" fill="#004789"/>
<path id="Vector_2" d="M78.1497 81.1051C79.2628 81.1051 80.1651 80.2027 80.1651 79.0896C80.1651 77.9766 79.2628 77.0742 78.1497 77.0742C77.0366 77.0742 76.1343 77.9766 76.1343 79.0896C76.1343 80.2027 77.0366 81.1051 78.1497 81.1051Z" fill="#004789"/>
<path id="Vector_3" d="M84.1327 82.2232L91.1867 89.2772C91.9739 90.0644 91.9739 91.3405 91.1867 92.1277C90.3996 92.9148 89.1235 92.9148 88.3363 92.1277L81.2823 85.0736C80.4951 84.2865 80.4951 83.0103 81.2823 82.2232C82.0694 81.436 83.3455 81.436 84.1327 82.2232Z" fill="#004789"/>
<path id="Vector_4" d="M94.3196 97.275C95.4327 97.275 96.335 96.3726 96.335 95.2596C96.335 94.1465 95.4327 93.2441 94.3196 93.2441C93.2065 93.2441 92.3042 94.1465 92.3042 95.2596C92.3042 96.3726 93.2065 97.275 94.3196 97.275Z" fill="#004789"/>
</g>
<g id="Group_2">
<path id="Vector_5" d="M31.595 80.6324C32.7081 80.6324 33.6104 79.7301 33.6104 78.617C33.6104 77.5039 32.7081 76.6016 31.595 76.6016C30.4819 76.6016 29.5796 77.5039 29.5796 78.617C29.5796 79.7301 30.4819 80.6324 31.595 80.6324Z" fill="#004789"/>
<path id="Vector_6" d="M27.033 85.1969C28.1461 85.1969 29.0484 84.2945 29.0484 83.1814C29.0484 82.0683 28.1461 81.166 27.033 81.166C25.9199 81.166 25.0176 82.0683 25.0176 83.1814C25.0176 84.2945 25.9199 85.1969 27.033 85.1969Z" fill="#004789"/>
<path id="Vector_7" d="M23.9001 89.1674L16.8461 96.2214C16.0589 97.0086 14.7828 97.0086 13.9956 96.2214C13.2085 95.4343 13.2085 94.1581 13.9956 93.371L21.0497 86.3169C21.8368 85.5298 23.113 85.5298 23.9001 86.3169C24.6873 87.1041 24.6873 88.3802 23.9001 89.1674Z" fill="#004789"/>
<path id="Vector_8" d="M40.1889 69.1425L39.2046 68.1582L34.7281 72.6347C33.9409 73.4219 33.9409 74.698 34.7281 75.4852C35.5152 76.2723 36.7913 76.2723 37.5785 75.4852L42.1788 70.8848C41.4877 70.3554 40.8219 69.7742 40.1901 69.1425H40.1889Z" fill="#004789"/>
</g>
<path id="Vector_9" fill-rule="evenodd" clip-rule="evenodd" d="M86.644 97.1167L64.2499 74.7227L62.1475 76.8251L84.5415 99.2192C85.1227 99.7991 86.064 99.7991 86.644 99.2192C87.2239 98.638 87.2239 97.6967 86.644 97.1167Z" fill="#00A0B0"/>
<path id="Vector_10" fill-rule="evenodd" clip-rule="evenodd" d="M47.0125 73.6133L23.5394 97.0864C22.9582 97.6676 22.9582 98.6089 23.5394 99.1888C24.1206 99.7688 25.0619 99.77 25.6419 99.1888L50.2546 74.5761C49.1541 74.3486 48.0688 74.0277 47.0125 73.6133Z" fill="#00A0B0"/>
<path id="Vector_11" fill-rule="evenodd" clip-rule="evenodd" d="M33.8671 62.8145L11.5678 85.1138C10.9878 85.6937 10.9878 86.635 11.5678 87.2162C12.149 87.7974 13.0903 87.7974 13.6702 87.2162L35.9695 64.9169L33.8671 62.8145Z" fill="#00A0B0"/>
<path id="Vector_12" fill-rule="evenodd" clip-rule="evenodd" d="M55.4767 74.9554C49.9957 75.2776 44.3896 73.3419 40.1936 69.1459L6.12865 35.081C-1.66202 27.2903 -1.66202 14.658 6.12865 6.86603C13.9206 -0.924643 26.5517 -0.924643 34.3436 6.86603L54.9435 27.4659L75.834 6.57542C83.6247 -1.21525 96.2571 -1.21525 104.049 6.57542C111.841 14.3661 111.84 26.9984 104.049 34.7904L69.7276 69.1118C65.7956 73.0425 60.6229 74.9908 55.478 74.9542L55.4767 74.9554ZM54.9423 34.3065L30.9233 10.2863C25.0203 4.38327 15.4507 4.38327 9.54891 10.2863C3.64589 16.188 3.64589 25.759 9.54891 31.6607L43.6138 65.7256C46.8319 68.945 51.1417 70.4081 55.3529 70.1163C59.3101 70.1857 63.2889 68.7113 66.3073 65.6915L100.629 31.3701C106.53 25.4671 106.53 15.8974 100.629 9.99569C94.7257 4.09267 85.1561 4.09267 79.2543 9.99569L54.9448 34.3052L54.9423 34.3065Z" fill="#004789"/>
<path id="Vector_13" fill-rule="evenodd" clip-rule="evenodd" d="M97.1713 14.1849C93.2621 10.2757 86.9232 10.2757 83.0127 14.1849L55.7251 41.4725L28.3201 14.0686C24.4108 10.1594 18.0719 10.1594 14.1614 14.0686C10.2522 17.9779 10.2522 24.3168 14.1614 28.2273L48.4992 62.5639C49.0122 63.0768 49.5669 63.5203 50.1519 63.8981C54.046 66.535 59.3855 66.1307 62.8348 62.6814L97.1726 28.3435C101.083 24.4343 101.083 18.0954 97.1726 14.1849H97.1713ZM17.0118 16.9178C19.348 14.5816 23.1347 14.5816 25.4709 16.9178L52.876 44.3229L48.6761 48.5227C47.0766 50.1223 46.1327 52.1274 45.8421 54.2059L17.0118 25.3769C14.6757 23.0407 14.6757 19.254 17.0118 16.9178ZM59.8075 59.7134C57.7871 61.7338 54.6828 62.0054 52.3693 60.5309C52.0724 60.3262 51.7894 60.0937 51.5253 59.8309C49.1891 57.4947 49.1891 53.7081 51.5253 51.3719L55.7251 47.172L59.8075 51.2544C62.1437 53.5906 62.1437 57.3772 59.8075 59.7134ZM94.3209 25.4931L65.5159 54.2981C65.2607 52.1439 64.3093 50.0579 62.6566 48.4052L58.5743 44.3229L85.8619 17.0353C88.198 14.6991 91.9847 14.6991 94.3209 17.0353C96.6571 19.3715 96.6571 23.1582 94.3209 25.4944V25.4931Z" fill="#00A0B0"/>
<g id="Group_3">
<path id="Vector_14" d="M68.3953 45.1187C69.5084 45.1187 70.4107 44.2164 70.4107 43.1033C70.4107 41.9902 69.5084 41.0879 68.3953 41.0879C67.2822 41.0879 66.3799 41.9902 66.3799 43.1033C66.3799 44.2164 67.2822 45.1187 68.3953 45.1187Z" fill="#004789"/>
<path id="Vector_15" d="M72.9578 40.566C74.0709 40.566 74.9732 39.6637 74.9732 38.5506C74.9732 37.4375 74.0709 36.5352 72.9578 36.5352C71.8447 36.5352 70.9424 37.4375 70.9424 38.5506C70.9424 39.6637 71.8447 40.566 72.9578 40.566Z" fill="#004789"/>
<path id="Vector_16" d="M77.5154 35.9996C78.6285 35.9996 79.5308 35.0973 79.5308 33.9842C79.5308 32.8711 78.6285 31.9688 77.5154 31.9688C76.4023 31.9688 75.5 32.8711 75.5 33.9842C75.5 35.0973 76.4023 35.9996 77.5154 35.9996Z" fill="#004789"/>
<path id="Vector_17" d="M80.6514 28.0018L87.7055 20.9478C88.4926 20.1606 89.7687 20.1606 90.5559 20.9478C91.343 21.7349 91.343 23.0111 90.5559 23.7982L83.5018 30.8523C82.7147 31.6394 81.4386 31.6394 80.6514 30.8523C79.8642 30.0651 79.8642 28.789 80.6514 28.0018Z" fill="#004789"/>
</g>
<path id="Vector_18" fill-rule="evenodd" clip-rule="evenodd" d="M20.8664 20.7121C21.4957 20.0829 22.5166 20.0829 23.1458 20.7121L46.3005 43.8668C46.9297 44.4961 46.9297 45.517 46.3005 46.1474C45.6713 46.7779 44.6504 46.7767 44.0211 46.1474L20.8664 22.9927C20.2372 22.3635 20.2372 21.3426 20.8664 20.7134V20.7121Z" fill="#004789"/>
<path id="Vector_19" fill-rule="evenodd" clip-rule="evenodd" d="M76.1508 62.6855L74.0483 64.788L96.5094 87.249C97.0906 87.8302 98.0319 87.8302 98.6118 87.249C99.193 86.6678 99.193 85.7278 98.6118 85.1466L76.1508 62.6855Z" fill="#00A0B0"/>
<path id="Vector_20" fill-rule="evenodd" clip-rule="evenodd" d="M83.2234 55.6172L79.8031 59.0375L100.028 79.2621C105.931 85.1651 105.931 94.7348 100.028 100.637C94.126 106.54 84.5551 106.54 78.6533 100.637L58.4957 80.4789L69.0091 69.9654C69.4728 69.5017 69.91 69.019 70.3181 68.5225L69.7318 69.1087C69.6156 69.225 69.4981 69.3387 69.3793 69.4524C69.3402 69.4903 69.2997 69.5269 69.2606 69.5636C69.181 69.6381 69.1014 69.7127 69.0205 69.7859C68.9725 69.8289 68.9245 69.8719 68.8765 69.9148C68.8032 69.9805 68.7299 70.045 68.6554 70.1094C68.6036 70.1536 68.5518 70.1978 68.4999 70.2421C68.4279 70.3027 68.3559 70.3634 68.2839 70.4228C68.2296 70.467 68.1765 70.5112 68.1222 70.5542C68.0501 70.6123 67.9781 70.6691 67.9061 70.726C67.8518 70.7689 67.7962 70.8119 67.7406 70.8549C67.6673 70.9105 67.5928 70.9661 67.5195 71.0216C67.4651 71.0621 67.4096 71.1038 67.3552 71.1442C67.2769 71.2011 67.1986 71.2567 67.1202 71.3122C67.0684 71.3489 67.0166 71.3868 66.9648 71.4222C66.8486 71.503 66.7323 71.5814 66.6148 71.6584C66.5491 71.7014 66.4822 71.7444 66.4165 71.7873C66.3406 71.8366 66.2648 71.8846 66.189 71.9326C66.1221 71.9743 66.0538 72.0147 65.9869 72.0564C65.9212 72.0969 65.8555 72.1373 65.7885 72.1765C65.7165 72.2194 65.6457 72.2599 65.5737 72.3016C65.5105 72.3382 65.4486 72.3736 65.3855 72.409C65.3109 72.4506 65.2351 72.4923 65.1593 72.534C65.0999 72.5669 65.0393 72.5985 64.9799 72.6301C64.9015 72.6718 64.8219 72.7134 64.7436 72.7539C64.688 72.7829 64.6312 72.8107 64.5756 72.8398C64.4922 72.8815 64.4088 72.9232 64.3254 72.9636C64.2761 72.9876 64.2256 73.0104 64.1763 73.0344C64.0853 73.0773 63.9944 73.1203 63.9034 73.162C63.8731 73.1759 63.8427 73.1885 63.8137 73.2024C63.4523 73.3654 63.0859 73.517 62.717 73.6573C62.7056 73.6611 62.6942 73.6661 62.6829 73.6699C62.5704 73.7129 62.458 73.7533 62.3455 73.7937C62.3164 73.8038 62.2874 73.8152 62.2571 73.8253C62.1484 73.8632 62.0397 73.8999 61.9298 73.9365C61.897 73.9479 61.8654 73.958 61.8325 73.9694C61.7226 74.0047 61.6127 74.0401 61.5028 74.0742C61.4724 74.0831 61.4421 74.0932 61.4105 74.102C61.2968 74.1361 61.1831 74.1703 61.0681 74.2018C61.0454 74.2082 61.0214 74.2145 60.9986 74.2208C60.8761 74.2549 60.7535 74.289 60.6297 74.3206C60.6272 74.3206 60.6234 74.3219 60.6208 74.3231C59.9297 74.5013 59.2297 74.6415 58.5272 74.7451C58.5272 74.7451 58.5247 74.7451 58.5234 74.7451C58.3883 74.7654 58.2531 74.783 58.1166 74.8007C58.1065 74.8007 58.0964 74.8033 58.0875 74.8045C57.9549 74.821 57.8209 74.8361 57.687 74.85C57.6769 74.85 57.6681 74.8525 57.658 74.8525C57.5215 74.8664 57.385 74.8791 57.2473 74.8904L55.0741 77.0636L51.6539 80.4839L31.5303 100.607C25.6273 106.511 16.0576 106.511 10.1558 100.607C4.25283 94.7045 4.25283 85.1348 10.1558 79.2331L30.2188 59.1701L26.7985 55.7499L6.73558 75.8128C-1.05509 83.6035 -1.05509 96.2358 6.73558 104.028C14.5275 111.818 27.1586 111.818 34.9505 104.028L55.0741 83.9042L75.2318 104.062C83.0238 111.853 95.6548 111.853 103.447 104.062C111.237 96.2699 111.237 83.6388 103.447 75.8469L83.2221 55.6222L83.2234 55.6172Z" fill="#004789"/>
</g>
<defs>
<clipPath id="clip0_2854_2833">
<rect width="109.606" height="109.17" fill="white" transform="translate(0.285645 0.732422)"/>
</clipPath>
</defs>
</svg>
